<svg class="tc-main-header--logo-img" xmlns="http://www.w3.org/2000/svg" viewBox="0 0 90 55">
  <style type="text/css">
    * {
      transition: all .5s ease-out;
    }
    @media all and (max-width: 300px) {
      #TicketCo {
        transform: translateY(7px);
      }
    }
  </style>
  <g id="Logo-full-white" fill="none" fill-rule="evenodd">
    <g id="Logo-full">
      <g id="Mascots">
        <path id="Combined-Shape" fill="#FFF" d="M31.92 9.29a27.63 27.63 0 0 1 46.2 28.93 7.9 7.9 0 1 1-8.9 11.48 27.51 27.51 0 0 1-16.63 5.56 27.52 27.52 0 0 1-17.71-6.42 12.15 12.15 0 0 1-19.72-1.72 9.83 9.83 0 1 1-7.68-17.8A17.1 17.1 0 0 1 31.92 9.29z"></path>
        <g id="Group-21" transform="translate(21 8)">
          <g id="Group-20">
            <path id="Fill-73" fill="#333" d="M17.37.65c-.53.1-1.17.56-1.43 1.03 0 0-2.12 4.03-4.96 4.53S4.76 3.65 4.76 3.65a2.28 2.28 0 0 0-1.7-.49l-2.22.4c-.54.09-.9.6-.8 1.13l5.83 32.96c.1.53.6.9 1.14.8l2.23-.4a2.23 2.23 0 0 0 1.42-1.03s2.13-4.03 4.97-4.52c2.84-.5 6.22 2.55 6.22 2.55.4.37 1.16.59 1.7.5l2.22-.4c.53-.1.9-.6.8-1.13L20.73 1.05a.98.98 0 0 0-1.13-.8l-2.23.4z"></path>
            <path id="Fill-75" fill="#FFD200" d="M4.61 12.8l.16-.09c.1-.05.24-.14.43-.23.2-.1.42-.22.69-.33.26-.12.56-.26.9-.37.32-.13.68-.27 1.07-.39.38-.12.78-.26 1.2-.37.43-.11.86-.23 1.3-.32a29.72 29.72 0 0 1 4.07-.62c.43-.04.86-.04 1.26-.06.4-.02.79-.01 1.14 0 .35 0 .68.02.97.04.3.01.55.05.76.07l.49.07.17.04h.03c.03 0 .05.04.05.07 0 .03-.03.05-.05.06l-.63.12-1.65.31-5.02.91-5.03.86-1.65.26-.63.1a.06.06 0 0 1-.08-.05c0-.03.01-.05.03-.06l.02-.02z"></path>
            <path id="Fill-77" fill="#FFD200" d="M18.71 25.66l-.08.08-.24.2a6.98 6.98 0 0 1-2.14 1.15 8 8 0 0 1-1.51.39c-.26.04-.52.09-.78.1a8.39 8.39 0 0 1-3.18-.3l-.29-.11-.1-.05-.04-.02a.06.06 0 0 1-.03-.07l.05-.04.35-.07.94-.19 2.86-.53 2.86-.47.95-.15.36-.05a.06.06 0 0 1 .05.1l-.03.03z"></path>
            <path id="Fill-79" fill="#FFD200" d="M10.75 16.2a1.78 1.78 0 0 1-3.5.61 1.78 1.78 0 0 1 3.5-.61"></path>
            <path id="Fill-81" fill="#FFD200" d="M18.13 14.9a1.77 1.77 0 1 1-3.5.61 1.77 1.77 0 0 1 3.5-.6"></path>
          </g>
          <g id="Group-19" transform="translate(18 2)">
            <path id="Fill-83" fill="#FFD200" d="M23.78 3.85c-.53-.1-1.3.13-1.69.49 0 0-3.38 3.06-6.22 2.56S10.9 2.37 10.9 2.37a2.26 2.26 0 0 0-1.42-1.03L7.25.94a.98.98 0 0 0-1.14.8L.28 34.71a.98.98 0 0 0 .8 1.13l2.22.4c.53.09 1.3-.13 1.7-.5 0 0 3.38-3.05 6.22-2.55s4.96 4.52 4.96 4.52c.25.48.9.94 1.43 1.04l2.23.39a.98.98 0 0 0 1.13-.8l5.84-32.96a.98.98 0 0 0-.8-1.14l-2.23-.39z"></path>
                  <path id="Fill-85" fill="#333" d="M7.62 10.93l.18-.04.49-.07c.21-.02.47-.06.76-.07a14.1 14.1 0 0 1 2.11-.04c.4.01.82.02 1.26.06.43.04.88.08 1.33.14l1.37.2 1.36.28a24.67 24.67 0 0 1 5.17 1.78c.19.09.33.18.43.23l.16.1h.01c.03.02.04.06.03.1a.07.07 0 0 1-.07.02l-.63-.1-1.66-.26-5.03-.86-5.01-.9-1.65-.32-.63-.12a.06.06 0 0 1 0-.13h.02z"></path>
                  <path id="Fill-87" fill="#333" d="M16.46 27.81l-.1.05c-.07.02-.17.07-.3.1a6.87 6.87 0 0 1-2.4.36c-.26 0-.51-.01-.77-.04-.26-.02-.53-.07-.79-.1-.26-.06-.51-.1-.77-.18a8.62 8.62 0 0 1-2.88-1.37l-.23-.2-.08-.08-.03-.03a.06.06 0 0 1 0-.08 17.11 17.11 0 0 1 1.35.18l2.87.47 2.86.53.94.19.35.07c.03.01.05.04.05.07 0 .02-.02.03-.03.04l-.04.02z"></path>
                  <path id="Fill-89" fill="#333" d="M12.22 16.21a1.78 1.78 0 0 1-3.5-.62 1.78 1.78 0 0 1 3.5.62"></path>
                  <path id="Fill-91" fill="#333" d="M19.6 17.5c-.17.97-1.03.68-2 .5-.96-.16-1.67-.15-1.5-1.1.17-.97 1.53-.9 2.5-.74.96.17 1.17.38 1 1.35"></path>
                </g>
              </g>
            </g>
          </g>
        </g>
      </svg>